# Sieve Real Graphics: the item on the video line, a tape case.
# Built to the templates/ measurements; the front faces +X, towards the corridor, in the
# x = 0 plane, and that face is where the pre-rendered picture goes (faces.ini).
mtllib book-video.mtl
o book-video
v 0.000000 0.000000 0.140000
v 0.000000 0.400000 0.140000
v -0.073287 0.400000 0.140000
v -0.073287 0.000000 0.140000
v -0.012000 -0.000000 -0.140000
v -0.012000 0.400000 -0.140000
v 0.000000 0.400000 -0.140000
v 0.000000 -0.000000 -0.140000
v -0.012000 -0.000000 -0.140000
v 0.000000 -0.000000 -0.140000
v 0.000000 0.000000 0.140000
v -0.012000 0.000000 0.140000
v 0.000000 0.400000 -0.140000
v -0.012000 0.400000 -0.140000
v -0.012000 0.400000 0.140000
v 0.000000 0.400000 0.140000
v 0.000000 0.000000 0.140000
v 0.000000 -0.000000 -0.140000
v 0.000000 0.400000 -0.140000
v 0.000000 0.400000 0.140000
v -0.012000 -0.000000 -0.140000
v -0.012000 0.000000 0.140000
v -0.012000 0.400000 0.140000
v -0.012000 0.400000 -0.140000
v -0.073287 -0.000000 -0.140000
v -0.073287 0.400000 -0.140000
v -0.061287 0.400000 -0.140000
v -0.061287 -0.000000 -0.140000
v -0.073287 -0.000000 -0.140000
v -0.061287 -0.000000 -0.140000
v -0.061287 0.000000 0.140000
v -0.073287 0.000000 0.140000
v -0.061287 0.400000 -0.140000
v -0.073287 0.400000 -0.140000
v -0.073287 0.400000 0.140000
v -0.061287 0.400000 0.140000
v -0.061287 0.000000 0.140000
v -0.061287 -0.000000 -0.140000
v -0.061287 0.400000 -0.140000
v -0.061287 0.400000 0.140000
v -0.073287 -0.000000 -0.140000
v -0.073287 0.000000 0.140000
v -0.073287 0.400000 0.140000
v -0.073287 0.400000 -0.140000
v -0.061287 0.006000 -0.136000
v -0.061287 0.394000 -0.136000
v -0.012000 0.394000 -0.136000
v -0.012000 0.006000 -0.136000
v -0.012000 0.394000 -0.136000
v -0.061287 0.394000 -0.136000
v -0.061287 0.394000 0.136000
v -0.012000 0.394000 0.136000
vt 0.000000 0.000000
vt 0.400000 0.000000
vt 0.400000 0.280000
vt 0.000000 0.280000
vt 0.400000 0.012000
vt 0.000000 0.012000
vt 0.012000 0.000000
vt 0.012000 0.300000
vt 0.000000 0.300000
vt 0.300000 0.000000
vt 0.300000 0.400000
vt 0.000000 0.400000
vt 0.388000 0.000000
vt 0.388000 0.256000
vt 0.000000 0.256000
vt 0.256000 0.000000
vt 0.256000 0.292000
vt 0.000000 0.292000
vn -1.0000 0.0000 0.0000
vn 0.0000 -1.0000 0.0000
vn 0.0000 0.0000 -1.0000
vn 0.0000 0.0000 1.0000
vn 0.0000 1.0000 0.0000
vn 1.0000 0.0000 0.0000
s off
usemtl book_spine
f 1/1/4 2/2/4 3/3/4 4/4/4
usemtl book_cover
f 5/1/3 6/2/3 7/5/3 8/6/3
f 9/1/2 10/7/2 11/8/2 12/9/2
f 13/1/5 14/7/5 15/8/5 16/9/5
f 17/1/6 18/10/6 19/11/6 20/12/6
f 21/1/1 22/10/1 23/11/1 24/12/1
f 25/1/3 26/2/3 27/5/3 28/6/3
f 29/1/2 30/7/2 31/8/2 32/9/2
f 33/1/5 34/7/5 35/8/5 36/9/5
f 37/1/6 38/10/6 39/11/6 40/12/6
f 41/1/1 42/10/1 43/11/1 44/12/1
usemtl book_pages
f 45/1/3 46/13/3 47/14/3 48/15/3
f 49/1/5 50/16/5 51/17/5 52/18/5
