# Sieve Real Graphics: the item on the pages line, a single sheet of paper.
# Built to the templates/ measurements; the front faces +X, towards the corridor, in the
# x = 0 plane, and that face is where the pre-rendered picture goes (faces.ini).
mtllib book-pages.mtl
o book-pages
v 0.000000 -0.000000 -0.140000
v 0.000000 0.400000 -0.140000
v 0.000000 0.400000 0.140000
v 0.000000 0.000000 0.140000
vt 0.000000 0.000000
vt 0.400000 0.000000
vt 0.400000 0.280000
vt 0.000000 0.280000
vn 1.0000 0.0000 0.0000
s off
usemtl book_pages
f 1/1/1 2/2/1 3/3/1 4/4/1
