# Sieve Real Graphics template: hallway (one tile of corridor). Built by tools/build_mesh_templates.py.
# Units metres, Y up, the corridor runs along +Z. The tile spans z 0..8, x -2..2, y 0..3; it is
# drawn once per tile, repeated every 8 m. Doorways: z 6.4..7.6, 2.2 m high, in both walls.
# Groups: floor, ceiling, wall_left/right, door_left/right, door_reveal_left/right, door_sill_left/right,
# door_frame_left/right.
# Keep the door groups where they are: walking through z 6.4..7.6 at a wall is how you change line.
mtllib hallway.mtl
v -2 0 0
v -2 0 8
v 2 0 8
v 2 0 0
v -2 3 8
v -2 3 0
v 2 3 0
v 2 3 8
v -2 0 0
v -2 3 0
v -2 3 6.4
v -2 0 6.4
v -2 0 7.6
v -2 3 7.6
v -2 3 8
v -2 0 8
v -2 2.2 6.4
v -2 3 6.4
v -2 3 7.6
v -2 2.2 7.6
v -2.06 0 6.4
v -2.06 2.2 6.4
v -2.06 2.2 7.6
v -2.06 0 7.6
v -2.06 0 6.4
v -2 0 6.4
v -2 2.2 6.4
v -2.06 2.2 6.4
v -2 0 7.6
v -2.06 0 7.6
v -2.06 2.2 7.6
v -2 2.2 7.6
v -2.06 2.2 7.6
v -2.06 2.2 6.4
v -2 2.2 6.4
v -2 2.2 7.6
v -2.06 0 6.4
v -2.06 0 7.6
v -2 0 7.6
v -2 0 6.4
v -1.96 0 6.32
v -1.96 2.28 6.32
v -1.96 2.28 6.4
v -1.96 0 6.4
v -2 2.28 6.32
v -2 2.28 6.4
v -1.96 2.28 6.4
v -1.96 2.28 6.32
v -1.96 0 6.32
v -2 0 6.32
v -2 2.28 6.32
v -1.96 2.28 6.32
v -2 0 6.4
v -1.96 0 6.4
v -1.96 2.28 6.4
v -2 2.28 6.4
v -1.96 0 7.6
v -1.96 2.28 7.6
v -1.96 2.28 7.68
v -1.96 0 7.68
v -2 2.28 7.6
v -2 2.28 7.68
v -1.96 2.28 7.68
v -1.96 2.28 7.6
v -1.96 0 7.6
v -2 0 7.6
v -2 2.28 7.6
v -1.96 2.28 7.6
v -2 0 7.68
v -1.96 0 7.68
v -1.96 2.28 7.68
v -2 2.28 7.68
v -1.96 2.2 6.4
v -1.96 2.28 6.4
v -1.96 2.28 7.6
v -1.96 2.2 7.6
v -2 2.2 7.6
v -2 2.2 6.4
v -1.96 2.2 6.4
v -1.96 2.2 7.6
v -2 2.28 6.4
v -2 2.28 7.6
v -1.96 2.28 7.6
v -1.96 2.28 6.4
v -1.96 2.2 6.4
v -2 2.2 6.4
v -2 2.28 6.4
v -1.96 2.28 6.4
v -2 2.2 7.6
v -1.96 2.2 7.6
v -1.96 2.28 7.6
v -2 2.28 7.6
v 2 0 6.4
v 2 3 6.4
v 2 3 0
v 2 0 0
v 2 0 8
v 2 3 8
v 2 3 7.6
v 2 0 7.6
v 2 2.2 7.6
v 2 3 7.6
v 2 3 6.4
v 2 2.2 6.4
v 2.06 0 7.6
v 2.06 2.2 7.6
v 2.06 2.2 6.4
v 2.06 0 6.4
v 2 0 6.4
v 2.06 0 6.4
v 2.06 2.2 6.4
v 2 2.2 6.4
v 2.06 0 7.6
v 2 0 7.6
v 2 2.2 7.6
v 2.06 2.2 7.6
v 2 2.2 7.6
v 2 2.2 6.4
v 2.06 2.2 6.4
v 2.06 2.2 7.6
v 2 0 6.4
v 2 0 7.6
v 2.06 0 7.6
v 2.06 0 6.4
v 1.96 0 6.4
v 1.96 2.28 6.4
v 1.96 2.28 6.32
v 1.96 0 6.32
v 1.96 2.28 6.32
v 1.96 2.28 6.4
v 2 2.28 6.4
v 2 2.28 6.32
v 2 0 6.32
v 1.96 0 6.32
v 1.96 2.28 6.32
v 2 2.28 6.32
v 1.96 0 6.4
v 2 0 6.4
v 2 2.28 6.4
v 1.96 2.28 6.4
v 1.96 0 7.68
v 1.96 2.28 7.68
v 1.96 2.28 7.6
v 1.96 0 7.6
v 1.96 2.28 7.6
v 1.96 2.28 7.68
v 2 2.28 7.68
v 2 2.28 7.6
v 2 0 7.6
v 1.96 0 7.6
v 1.96 2.28 7.6
v 2 2.28 7.6
v 1.96 0 7.68
v 2 0 7.68
v 2 2.28 7.68
v 1.96 2.28 7.68
v 1.96 2.2 7.6
v 1.96 2.28 7.6
v 1.96 2.28 6.4
v 1.96 2.2 6.4
v 1.96 2.2 7.6
v 1.96 2.2 6.4
v 2 2.2 6.4
v 2 2.2 7.6
v 1.96 2.28 6.4
v 1.96 2.28 7.6
v 2 2.28 7.6
v 2 2.28 6.4
v 2 2.2 6.4
v 1.96 2.2 6.4
v 1.96 2.28 6.4
v 2 2.28 6.4
v 1.96 2.2 7.6
v 2 2.2 7.6
v 2 2.28 7.6
v 1.96 2.28 7.6
vt 0 0
vt 8 0
vt 8 4
vt 0 4
vt 0 0
vt 8 0
vt 8 4
vt 0 4
vt 0 0
vt 3 0
vt 3 6.4
vt 0 6.4
vt 0 0
vt 3 0
vt 3 0.4
vt 0 0.4
vt 0 0
vt 0.8 0
vt 0.8 1.2
vt 0 1.2
vt 0 0
vt 2.2 0
vt 2.2 1.2
vt 0 1.2
vt 0 0
vt 0.06 0
vt 0.06 2.2
vt 0 2.2
vt 0 0
vt 0.06 0
vt 0.06 2.2
vt 0 2.2
vt 0 0
vt 1.2 0
vt 1.2 0.06
vt 0 0.06
vt 0 0
vt 1.2 0
vt 1.2 0.06
vt 0 0.06
vt 0 0
vt 2.28 0
vt 2.28 0.08
vt 0 0.08
vt 0 0
vt 0.08 0
vt 0.08 0.04
vt 0 0.04
vt 0 0
vt 0.04 0
vt 0.04 2.28
vt 0 2.28
vt 0 0
vt 0.04 0
vt 0.04 2.28
vt 0 2.28
vt 0 0
vt 2.28 0
vt 2.28 0.08
vt 0 0.08
vt 0 0
vt 0.08 0
vt 0.08 0.04
vt 0 0.04
vt 0 0
vt 0.04 0
vt 0.04 2.28
vt 0 2.28
vt 0 0
vt 0.04 0
vt 0.04 2.28
vt 0 2.28
vt 0 0
vt 0.08 0
vt 0.08 1.2
vt 0 1.2
vt 0 0
vt 1.2 0
vt 1.2 0.04
vt 0 0.04
vt 0 0
vt 1.2 0
vt 1.2 0.04
vt 0 0.04
vt 0 0
vt 0.04 0
vt 0.04 0.08
vt 0 0.08
vt 0 0
vt 0.04 0
vt 0.04 0.08
vt 0 0.08
vt 0 0
vt 3 0
vt 3 6.4
vt 0 6.4
vt 0 0
vt 3 0
vt 3 0.4
vt 0 0.4
vt 0 0
vt 0.8 0
vt 0.8 1.2
vt 0 1.2
vt 0 0
vt 2.2 0
vt 2.2 1.2
vt 0 1.2
vt 0 0
vt 0.06 0
vt 0.06 2.2
vt 0 2.2
vt 0 0
vt 0.06 0
vt 0.06 2.2
vt 0 2.2
vt 0 0
vt 1.2 0
vt 1.2 0.06
vt 0 0.06
vt 0 0
vt 1.2 0
vt 1.2 0.06
vt 0 0.06
vt 0 0
vt 2.28 0
vt 2.28 0.08
vt 0 0.08
vt 0 0
vt 0.08 0
vt 0.08 0.04
vt 0 0.04
vt 0 0
vt 0.04 0
vt 0.04 2.28
vt 0 2.28
vt 0 0
vt 0.04 0
vt 0.04 2.28
vt 0 2.28
vt 0 0
vt 2.28 0
vt 2.28 0.08
vt 0 0.08
vt 0 0
vt 0.08 0
vt 0.08 0.04
vt 0 0.04
vt 0 0
vt 0.04 0
vt 0.04 2.28
vt 0 2.28
vt 0 0
vt 0.04 0
vt 0.04 2.28
vt 0 2.28
vt 0 0
vt 0.08 0
vt 0.08 1.2
vt 0 1.2
vt 0 0
vt 1.2 0
vt 1.2 0.04
vt 0 0.04
vt 0 0
vt 1.2 0
vt 1.2 0.04
vt 0 0.04
vt 0 0
vt 0.04 0
vt 0.04 0.08
vt 0 0.08
vt 0 0
vt 0.04 0
vt 0.04 0.08
vt 0 0.08
vn 0 1 0
vn 0 -1 0
vn 1 0 0
vn 0 0 1
vn 0 0 -1
vn -1 0 0
g floor
usemtl floor
f 1/1/1 2/2/1 3/3/1 4/4/1
g ceiling
usemtl ceiling
f 5/5/2 6/6/2 7/7/2 8/8/2
g wall_left
usemtl wall
f 9/9/3 10/10/3 11/11/3 12/12/3
f 13/13/3 14/14/3 15/15/3 16/16/3
f 17/17/3 18/18/3 19/19/3 20/20/3
g door_left
usemtl door
f 21/21/3 22/22/3 23/23/3 24/24/3
g door_reveal_left
usemtl wall
f 25/25/4 26/26/4 27/27/4 28/28/4
f 29/29/5 30/30/5 31/31/5 32/32/5
f 33/33/2 34/34/2 35/35/2 36/36/2
g door_sill_left
usemtl floor
f 37/37/1 38/38/1 39/39/1 40/40/1
g door_frame_left
usemtl door_frame
f 41/41/3 42/42/3 43/43/3 44/44/3
f 45/45/1 46/46/1 47/47/1 48/48/1
f 49/49/5 50/50/5 51/51/5 52/52/5
f 53/53/4 54/54/4 55/55/4 56/56/4
f 57/57/3 58/58/3 59/59/3 60/60/3
f 61/61/1 62/62/1 63/63/1 64/64/1
f 65/65/5 66/66/5 67/67/5 68/68/5
f 69/69/4 70/70/4 71/71/4 72/72/4
f 73/73/3 74/74/3 75/75/3 76/76/3
f 77/77/2 78/78/2 79/79/2 80/80/2
f 81/81/1 82/82/1 83/83/1 84/84/1
f 85/85/5 86/86/5 87/87/5 88/88/5
f 89/89/4 90/90/4 91/91/4 92/92/4
g wall_right
usemtl wall
f 93/93/6 94/94/6 95/95/6 96/96/6
f 97/97/6 98/98/6 99/99/6 100/100/6
f 101/101/6 102/102/6 103/103/6 104/104/6
g door_right
usemtl door
f 105/105/6 106/106/6 107/107/6 108/108/6
g door_reveal_right
usemtl wall
f 109/109/4 110/110/4 111/111/4 112/112/4
f 113/113/5 114/114/5 115/115/5 116/116/5
f 117/117/2 118/118/2 119/119/2 120/120/2
g door_sill_right
usemtl floor
f 121/121/1 122/122/1 123/123/1 124/124/1
g door_frame_right
usemtl door_frame
f 125/125/6 126/126/6 127/127/6 128/128/6
f 129/129/1 130/130/1 131/131/1 132/132/1
f 133/133/5 134/134/5 135/135/5 136/136/5
f 137/137/4 138/138/4 139/139/4 140/140/4
f 141/141/6 142/142/6 143/143/6 144/144/6
f 145/145/1 146/146/1 147/147/1 148/148/1
f 149/149/5 150/150/5 151/151/5 152/152/5
f 153/153/4 154/154/4 155/155/4 156/156/4
f 157/157/6 158/158/6 159/159/6 160/160/6
f 161/161/2 162/162/2 163/163/2 164/164/2
f 165/165/1 166/166/1 167/167/1 168/168/1
f 169/169/5 170/170/5 171/171/5 172/172/5
f 173/173/4 174/174/4 175/175/4 176/176/4
