# Sieve Real Graphics template: bookshelf (the LEFT wall's). Built by tools/build_mesh_templates.py.
# Units metres, Y up, the corridor runs along +Z. The case spans z 0..6 of each tile, from the wall
# (x = -2) to its front (x = -1.65), 2.85 m tall. The right wall's case is this one mirrored in X.
# Rows of books: 4, their tops at y = 2.65, 2.10, 1.55, 1.00 (0.55 apart); each book stands on the
# board 0.02 above y = 2.65 - (row + 1) * 0.55. 16 books per row, 0.375 m apart, from z = 0.
mtllib bookshelf.mtl
v -1.65 0 0
v -1.65 2.85 0
v -1.65 2.85 0.04
v -1.65 0 0.04
v -2 0 0.04
v -2 0 0
v -1.65 0 0
v -1.65 0 0.04
v -2 2.85 0
v -2 2.85 0.04
v -1.65 2.85 0.04
v -1.65 2.85 0
v -1.65 0 0
v -2 0 0
v -2 2.85 0
v -1.65 2.85 0
v -2 0 0.04
v -1.65 0 0.04
v -1.65 2.85 0.04
v -2 2.85 0.04
v -1.65 0 5.96
v -1.65 2.85 5.96
v -1.65 2.85 6
v -1.65 0 6
v -2 0 6
v -2 0 5.96
v -1.65 0 5.96
v -1.65 0 6
v -2 2.85 5.96
v -2 2.85 6
v -1.65 2.85 6
v -1.65 2.85 5.96
v -1.65 0 5.96
v -2 0 5.96
v -2 2.85 5.96
v -1.65 2.85 5.96
v -2 0 6
v -1.65 0 6
v -1.65 2.85 6
v -2 2.85 6
v -1.65 2.82 0
v -1.65 2.85 0
v -1.65 2.85 6
v -1.65 2.82 6
v -2 2.82 6
v -2 2.82 0
v -1.65 2.82 0
v -1.65 2.82 6
v -2 2.85 0
v -2 2.85 6
v -1.65 2.85 6
v -1.65 2.85 0
v -1.65 2.82 0
v -2 2.82 0
v -2 2.85 0
v -1.65 2.85 0
v -2 2.82 6
v -1.65 2.82 6
v -1.65 2.85 6
v -2 2.85 6
v -1.999 0 6
v -1.999 0 0
v -1.999 2.85 0
v -1.999 2.85 6
v -1.65 2.62 0.04
v -1.65 2.669 0.04
v -1.65 2.669 5.96
v -1.65 2.62 5.96
v -2 2.62 5.96
v -2 2.62 0.04
v -1.65 2.62 0.04
v -1.65 2.62 5.96
v -2 2.669 0.04
v -2 2.669 5.96
v -1.65 2.669 5.96
v -1.65 2.669 0.04
v -1.65 2.62 0.04
v -2 2.62 0.04
v -2 2.669 0.04
v -1.65 2.669 0.04
v -2 2.62 5.96
v -1.65 2.62 5.96
v -1.65 2.669 5.96
v -2 2.669 5.96
v -1.65 2.07 0.04
v -1.65 2.119 0.04
v -1.65 2.119 5.96
v -1.65 2.07 5.96
v -2 2.07 5.96
v -2 2.07 0.04
v -1.65 2.07 0.04
v -1.65 2.07 5.96
v -2 2.119 0.04
v -2 2.119 5.96
v -1.65 2.119 5.96
v -1.65 2.119 0.04
v -1.65 2.07 0.04
v -2 2.07 0.04
v -2 2.119 0.04
v -1.65 2.119 0.04
v -2 2.07 5.96
v -1.65 2.07 5.96
v -1.65 2.119 5.96
v -2 2.119 5.96
v -1.65 1.52 0.04
v -1.65 1.569 0.04
v -1.65 1.569 5.96
v -1.65 1.52 5.96
v -2 1.52 5.96
v -2 1.52 0.04
v -1.65 1.52 0.04
v -1.65 1.52 5.96
v -2 1.569 0.04
v -2 1.569 5.96
v -1.65 1.569 5.96
v -1.65 1.569 0.04
v -1.65 1.52 0.04
v -2 1.52 0.04
v -2 1.569 0.04
v -1.65 1.569 0.04
v -2 1.52 5.96
v -1.65 1.52 5.96
v -1.65 1.569 5.96
v -2 1.569 5.96
v -1.65 0.97 0.04
v -1.65 1.019 0.04
v -1.65 1.019 5.96
v -1.65 0.97 5.96
v -2 0.97 5.96
v -2 0.97 0.04
v -1.65 0.97 0.04
v -1.65 0.97 5.96
v -2 1.019 0.04
v -2 1.019 5.96
v -1.65 1.019 5.96
v -1.65 1.019 0.04
v -1.65 0.97 0.04
v -2 0.97 0.04
v -2 1.019 0.04
v -1.65 1.019 0.04
v -2 0.97 5.96
v -1.65 0.97 5.96
v -1.65 1.019 5.96
v -2 1.019 5.96
v -1.65 0.42 0.04
v -1.65 0.469 0.04
v -1.65 0.469 5.96
v -1.65 0.42 5.96
v -2 0.42 5.96
v -2 0.42 0.04
v -1.65 0.42 0.04
v -1.65 0.42 5.96
v -2 0.469 0.04
v -2 0.469 5.96
v -1.65 0.469 5.96
v -1.65 0.469 0.04
v -1.65 0.42 0.04
v -2 0.42 0.04
v -2 0.469 0.04
v -1.65 0.469 0.04
v -2 0.42 5.96
v -1.65 0.42 5.96
v -1.65 0.469 5.96
v -2 0.469 5.96
v -1.65 0 0.04
v -1.65 0.42 0.04
v -1.65 0.42 5.96
v -1.65 0 5.96
v -2 0.42 0.04
v -2 0.42 5.96
v -1.65 0.42 5.96
v -1.65 0.42 0.04
v -1.65 0 0.04
v -2 0 0.04
v -2 0.42 0.04
v -1.65 0.42 0.04
v -2 0 5.96
v -1.65 0 5.96
v -1.65 0.42 5.96
v -2 0.42 5.96
vt 0 0
vt 2.85 0
vt 2.85 0.04
vt 0 0.04
vt 0 0
vt 0.04 0
vt 0.04 0.35
vt 0 0.35
vt 0 0
vt 0.04 0
vt 0.04 0.35
vt 0 0.35
vt 0 0
vt 0.35 0
vt 0.35 2.85
vt 0 2.85
vt 0 0
vt 0.35 0
vt 0.35 2.85
vt 0 2.85
vt 0 0
vt 2.85 0
vt 2.85 0.04
vt 0 0.04
vt 0 0
vt 0.04 0
vt 0.04 0.35
vt 0 0.35
vt 0 0
vt 0.04 0
vt 0.04 0.35
vt 0 0.35
vt 0 0
vt 0.35 0
vt 0.35 2.85
vt 0 2.85
vt 0 0
vt 0.35 0
vt 0.35 2.85
vt 0 2.85
vt 0 0
vt 0.03 0
vt 0.03 6
vt 0 6
vt 0 0
vt 6 0
vt 6 0.35
vt 0 0.35
vt 0 0
vt 6 0
vt 6 0.35
vt 0 0.35
vt 0 0
vt 0.35 0
vt 0.35 0.03
vt 0 0.03
vt 0 0
vt 0.35 0
vt 0.35 0.03
vt 0 0.03
vt 0 0
vt 6 0
vt 6 2.85
vt 0 2.85
vt 0 0
vt 0.049 0
vt 0.049 5.92
vt 0 5.92
vt 0 0
vt 5.92 0
vt 5.92 0.35
vt 0 0.35
vt 0 0
vt 5.92 0
vt 5.92 0.35
vt 0 0.35
vt 0 0
vt 0.35 0
vt 0.35 0.049
vt 0 0.049
vt 0 0
vt 0.35 0
vt 0.35 0.049
vt 0 0.049
vt 0 0
vt 0.049 0
vt 0.049 5.92
vt 0 5.92
vt 0 0
vt 5.92 0
vt 5.92 0.35
vt 0 0.35
vt 0 0
vt 5.92 0
vt 5.92 0.35
vt 0 0.35
vt 0 0
vt 0.35 0
vt 0.35 0.049
vt 0 0.049
vt 0 0
vt 0.35 0
vt 0.35 0.049
vt 0 0.049
vt 0 0
vt 0.049 0
vt 0.049 5.92
vt 0 5.92
vt 0 0
vt 5.92 0
vt 5.92 0.35
vt 0 0.35
vt 0 0
vt 5.92 0
vt 5.92 0.35
vt 0 0.35
vt 0 0
vt 0.35 0
vt 0.35 0.049
vt 0 0.049
vt 0 0
vt 0.35 0
vt 0.35 0.049
vt 0 0.049
vt 0 0
vt 0.049 0
vt 0.049 5.92
vt 0 5.92
vt 0 0
vt 5.92 0
vt 5.92 0.35
vt 0 0.35
vt 0 0
vt 5.92 0
vt 5.92 0.35
vt 0 0.35
vt 0 0
vt 0.35 0
vt 0.35 0.049
vt 0 0.049
vt 0 0
vt 0.35 0
vt 0.35 0.049
vt 0 0.049
vt 0 0
vt 0.049 0
vt 0.049 5.92
vt 0 5.92
vt 0 0
vt 5.92 0
vt 5.92 0.35
vt 0 0.35
vt 0 0
vt 5.92 0
vt 5.92 0.35
vt 0 0.35
vt 0 0
vt 0.35 0
vt 0.35 0.049
vt 0 0.049
vt 0 0
vt 0.35 0
vt 0.35 0.049
vt 0 0.049
vt 0 0
vt 0.42 0
vt 0.42 5.92
vt 0 5.92
vt 0 0
vt 5.92 0
vt 5.92 0.35
vt 0 0.35
vt 0 0
vt 0.35 0
vt 0.35 0.42
vt 0 0.42
vt 0 0
vt 0.35 0
vt 0.35 0.42
vt 0 0.42
vn 1 0 0
vn 0 -1 0
vn 0 1 0
vn 0 0 -1
vn 0 0 1
g case_sides
usemtl shelf_wood
f 1/1/1 2/2/1 3/3/1 4/4/1
f 5/5/2 6/6/2 7/7/2 8/8/2
f 9/9/3 10/10/3 11/11/3 12/12/3
f 13/13/4 14/14/4 15/15/4 16/16/4
f 17/17/5 18/18/5 19/19/5 20/20/5
f 21/21/1 22/22/1 23/23/1 24/24/1
f 25/25/2 26/26/2 27/27/2 28/28/2
f 29/29/3 30/30/3 31/31/3 32/32/3
f 33/33/4 34/34/4 35/35/4 36/36/4
f 37/37/5 38/38/5 39/39/5 40/40/5
g case_top
usemtl shelf_wood
f 41/41/1 42/42/1 43/43/1 44/44/1
f 45/45/2 46/46/2 47/47/2 48/48/2
f 49/49/3 50/50/3 51/51/3 52/52/3
f 53/53/4 54/54/4 55/55/4 56/56/4
f 57/57/5 58/58/5 59/59/5 60/60/5
g case_back
usemtl shelf_back
f 61/61/1 62/62/1 63/63/1 64/64/1
g boards
usemtl shelf_wood
f 65/65/1 66/66/1 67/67/1 68/68/1
f 69/69/2 70/70/2 71/71/2 72/72/2
f 73/73/3 74/74/3 75/75/3 76/76/3
f 77/77/4 78/78/4 79/79/4 80/80/4
f 81/81/5 82/82/5 83/83/5 84/84/5
f 85/85/1 86/86/1 87/87/1 88/88/1
f 89/89/2 90/90/2 91/91/2 92/92/2
f 93/93/3 94/94/3 95/95/3 96/96/3
f 97/97/4 98/98/4 99/99/4 100/100/4
f 101/101/5 102/102/5 103/103/5 104/104/5
f 105/105/1 106/106/1 107/107/1 108/108/1
f 109/109/2 110/110/2 111/111/2 112/112/2
f 113/113/3 114/114/3 115/115/3 116/116/3
f 117/117/4 118/118/4 119/119/4 120/120/4
f 121/121/5 122/122/5 123/123/5 124/124/5
f 125/125/1 126/126/1 127/127/1 128/128/1
f 129/129/2 130/130/2 131/131/2 132/132/2
f 133/133/3 134/134/3 135/135/3 136/136/3
f 137/137/4 138/138/4 139/139/4 140/140/4
f 141/141/5 142/142/5 143/143/5 144/144/5
f 145/145/1 146/146/1 147/147/1 148/148/1
f 149/149/2 150/150/2 151/151/2 152/152/2
f 153/153/3 154/154/3 155/155/3 156/156/3
f 157/157/4 158/158/4 159/159/4 160/160/4
f 161/161/5 162/162/5 163/163/5 164/164/5
g plinth
usemtl shelf_wood
f 165/165/1 166/166/1 167/167/1 168/168/1
f 169/169/3 170/170/3 171/171/3 172/172/3
f 173/173/4 174/174/4 175/175/4 176/176/4
f 177/177/5 178/178/5 179/179/5 180/180/5
