# Sieve Real Graphics template: book (one slot). Built by tools/build_mesh_templates.py.
# Units metres, Y up. Local frame: origin at the bottom of the spine, centred across it; the
# spine faces +X (the corridor, for the left wall; the right wall's books are mirrored in X).
# Size: 0.28 wide (Z), 0.40 tall (Y, the uniform size), 0.30 deep (-X). Placed at x = -1.65, on
# its row's board, centred in its 0.375 m slot. Pages, image and books lines scale it in Y to
# the slot's height (0.34..0.46 m); the audio (record) and video (tape) lines never scale it.
mtllib book.mtl
v 0 0 -0.14
v 0 0.4 -0.14
v 0 0.4 0.14
v 0 0 0.14
v -0.3 0 -0.128
v -0.3 0.4 -0.128
v -0.3 0.4 -0.14
v -0.3 0 -0.14
v -0.3 0 -0.128
v -0.3 0 -0.14
v 0 0 -0.14
v 0 0 -0.128
v -0.3 0.4 -0.14
v -0.3 0.4 -0.128
v 0 0.4 -0.128
v 0 0.4 -0.14
v 0 0 -0.14
v -0.3 0 -0.14
v -0.3 0.4 -0.14
v 0 0.4 -0.14
v -0.3 0 -0.128
v 0 0 -0.128
v 0 0.4 -0.128
v -0.3 0.4 -0.128
v -0.3 0 0.14
v -0.3 0.4 0.14
v -0.3 0.4 0.128
v -0.3 0 0.128
v -0.3 0 0.14
v -0.3 0 0.128
v 0 0 0.128
v 0 0 0.14
v -0.3 0.4 0.128
v -0.3 0.4 0.14
v 0 0.4 0.14
v 0 0.4 0.128
v 0 0 0.128
v -0.3 0 0.128
v -0.3 0.4 0.128
v 0 0.4 0.128
v -0.3 0 0.14
v 0 0 0.14
v 0 0.4 0.14
v -0.3 0.4 0.14
v -0.296 0.006 0.128
v -0.296 0.394 0.128
v -0.296 0.394 -0.128
v -0.296 0.006 -0.128
v -0.296 0.006 0.128
v -0.296 0.006 -0.128
v -0.004 0.006 -0.128
v -0.004 0.006 0.128
v -0.296 0.394 -0.128
v -0.296 0.394 0.128
v -0.004 0.394 0.128
v -0.004 0.394 -0.128
vt 0 0
vt 0.4 0
vt 0.4 0.28
vt 0 0.28
vt 0 0
vt 0.4 0
vt 0.4 0.012
vt 0 0.012
vt 0 0
vt 0.012 0
vt 0.012 0.3
vt 0 0.3
vt 0 0
vt 0.012 0
vt 0.012 0.3
vt 0 0.3
vt 0 0
vt 0.3 0
vt 0.3 0.4
vt 0 0.4
vt 0 0
vt 0.3 0
vt 0.3 0.4
vt 0 0.4
vt 0 0
vt 0.4 0
vt 0.4 0.012
vt 0 0.012
vt 0 0
vt 0.012 0
vt 0.012 0.3
vt 0 0.3
vt 0 0
vt 0.012 0
vt 0.012 0.3
vt 0 0.3
vt 0 0
vt 0.3 0
vt 0.3 0.4
vt 0 0.4
vt 0 0
vt 0.3 0
vt 0.3 0.4
vt 0 0.4
vt 0 0
vt 0.388 0
vt 0.388 0.256
vt 0 0.256
vt 0 0
vt 0.256 0
vt 0.256 0.292
vt 0 0.292
vt 0 0
vt 0.256 0
vt 0.256 0.292
vt 0 0.292
vn 1 0 0
vn -1 0 0
vn 0 -1 0
vn 0 1 0
vn 0 0 -1
vn 0 0 1
g spine
usemtl book_spine
f 1/1/1 2/2/1 3/3/1 4/4/1
g covers
usemtl book_cover
f 5/5/2 6/6/2 7/7/2 8/8/2
f 9/9/3 10/10/3 11/11/3 12/12/3
f 13/13/4 14/14/4 15/15/4 16/16/4
f 17/17/5 18/18/5 19/19/5 20/20/5
f 21/21/6 22/22/6 23/23/6 24/24/6
f 25/25/2 26/26/2 27/27/2 28/28/2
f 29/29/3 30/30/3 31/31/3 32/32/3
f 33/33/4 34/34/4 35/35/4 36/36/4
f 37/37/5 38/38/5 39/39/5 40/40/5
f 41/41/6 42/42/6 43/43/6 44/44/6
g pages
usemtl book_pages
f 45/45/2 46/46/2 47/47/2 48/48/2
f 49/49/3 50/50/3 51/51/3 52/52/3
f 53/53/4 54/54/4 55/55/4 56/56/4
