# Sieve Real Graphics template: hallway (one tile of corridor). Built by tools/build_mesh_templates.py.
# Units metres, Y up, the corridor runs along +Z. The tile spans z 0..8, x -2..2, y 0..3; it is
# drawn once per tile, repeated every 8 m. Doorways: z 6.4..7.6, 2.2 m high, in both walls.
# Groups: floor, ceiling, wall_left/right, door_left/right, door_reveal_left/right, door_frame_left/right.
# Keep the door groups where they are: walking through z 6.4..7.6 at a wall is how you change line.
mtllib hallway.mtl
v -2 0 0
v -2 0 8
v 2 0 8
v 2 0 0
v -2 3 8
v -2 3 0
v 2 3 0
v 2 3 8
v -2 0 0
v -2 3 0
v -2 3 6.4
v -2 0 6.4
v -2 0 7.6
v -2 3 7.6
v -2 3 8
v -2 0 8
v -2 2.2 6.4
v -2 3 6.4
v -2 3 7.6
v -2 2.2 7.6
v -2.06 0 6.4
v -2.06 2.2 6.4
v -2.06 2.2 7.6
v -2.06 0 7.6
v -2.06 0 6.4
v -2 0 6.4
v -2 2.2 6.4
v -2.06 2.2 6.4
v -2 0 7.6
v -2.06 0 7.6
v -2.06 2.2 7.6
v -2 2.2 7.6
v -2.06 2.2 7.6
v -2.06 2.2 6.4
v -2 2.2 6.4
v -2 2.2 7.6
v -1.96 0 6.32
v -1.96 2.28 6.32
v -1.96 2.28 6.4
v -1.96 0 6.4
v -2 2.28 6.32
v -2 2.28 6.4
v -1.96 2.28 6.4
v -1.96 2.28 6.32
v -1.96 0 6.32
v -2 0 6.32
v -2 2.28 6.32
v -1.96 2.28 6.32
v -2 0 6.4
v -1.96 0 6.4
v -1.96 2.28 6.4
v -2 2.28 6.4
v -1.96 0 7.6
v -1.96 2.28 7.6
v -1.96 2.28 7.68
v -1.96 0 7.68
v -2 2.28 7.6
v -2 2.28 7.68
v -1.96 2.28 7.68
v -1.96 2.28 7.6
v -1.96 0 7.6
v -2 0 7.6
v -2 2.28 7.6
v -1.96 2.28 7.6
v -2 0 7.68
v -1.96 0 7.68
v -1.96 2.28 7.68
v -2 2.28 7.68
v -1.96 2.2 6.4
v -1.96 2.28 6.4
v -1.96 2.28 7.6
v -1.96 2.2 7.6
v -2 2.2 7.6
v -2 2.2 6.4
v -1.96 2.2 6.4
v -1.96 2.2 7.6
v -2 2.28 6.4
v -2 2.28 7.6
v -1.96 2.28 7.6
v -1.96 2.28 6.4
v -1.96 2.2 6.4
v -2 2.2 6.4
v -2 2.28 6.4
v -1.96 2.28 6.4
v -2 2.2 7.6
v -1.96 2.2 7.6
v -1.96 2.28 7.6
v -2 2.28 7.6
v 2 0 6.4
v 2 3 6.4
v 2 3 0
v 2 0 0
v 2 0 8
v 2 3 8
v 2 3 7.6
v 2 0 7.6
v 2 2.2 7.6
v 2 3 7.6
v 2 3 6.4
v 2 2.2 6.4
v 2.06 0 7.6
v 2.06 2.2 7.6
v 2.06 2.2 6.4
v 2.06 0 6.4
v 2 0 6.4
v 2.06 0 6.4
v 2.06 2.2 6.4
v 2 2.2 6.4
v 2.06 0 7.6
v 2 0 7.6
v 2 2.2 7.6
v 2.06 2.2 7.6
v 2 2.2 7.6
v 2 2.2 6.4
v 2.06 2.2 6.4
v 2.06 2.2 7.6
v 1.96 0 6.4
v 1.96 2.28 6.4
v 1.96 2.28 6.32
v 1.96 0 6.32
v 1.96 2.28 6.32
v 1.96 2.28 6.4
v 2 2.28 6.4
v 2 2.28 6.32
v 2 0 6.32
v 1.96 0 6.32
v 1.96 2.28 6.32
v 2 2.28 6.32
v 1.96 0 6.4
v 2 0 6.4
v 2 2.28 6.4
v 1.96 2.28 6.4
v 1.96 0 7.68
v 1.96 2.28 7.68
v 1.96 2.28 7.6
v 1.96 0 7.6
v 1.96 2.28 7.6
v 1.96 2.28 7.68
v 2 2.28 7.68
v 2 2.28 7.6
v 2 0 7.6
v 1.96 0 7.6
v 1.96 2.28 7.6
v 2 2.28 7.6
v 1.96 0 7.68
v 2 0 7.68
v 2 2.28 7.68
v 1.96 2.28 7.68
v 1.96 2.2 7.6
v 1.96 2.28 7.6
v 1.96 2.28 6.4
v 1.96 2.2 6.4
v 1.96 2.2 7.6
v 1.96 2.2 6.4
v 2 2.2 6.4
v 2 2.2 7.6
v 1.96 2.28 6.4
v 1.96 2.28 7.6
v 2 2.28 7.6
v 2 2.28 6.4
v 2 2.2 6.4
v 1.96 2.2 6.4
v 1.96 2.28 6.4
v 2 2.28 6.4
v 1.96 2.2 7.6
v 2 2.2 7.6
v 2 2.28 7.6
v 1.96 2.28 7.6
vt 0 0
vt 8 0
vt 8 4
vt 0 4
vt 0 0
vt 8 0
vt 8 4
vt 0 4
vt 0 0
vt 3 0
vt 3 6.4
vt 0 6.4
vt 0 0
vt 3 0
vt 3 0.4
vt 0 0.4
vt 0 0
vt 0.8 0
vt 0.8 1.2
vt 0 1.2
vt 0 0
vt 2.2 0
vt 2.2 1.2
vt 0 1.2
vt 0 0
vt 0.06 0
vt 0.06 2.2
vt 0 2.2
vt 0 0
vt 0.06 0
vt 0.06 2.2
vt 0 2.2
vt 0 0
vt 1.2 0
vt 1.2 0.06
vt 0 0.06
vt 0 0
vt 2.28 0
vt 2.28 0.08
vt 0 0.08
vt 0 0
vt 0.08 0
vt 0.08 0.04
vt 0 0.04
vt 0 0
vt 0.04 0
vt 0.04 2.28
vt 0 2.28
vt 0 0
vt 0.04 0
vt 0.04 2.28
vt 0 2.28
vt 0 0
vt 2.28 0
vt 2.28 0.08
vt 0 0.08
vt 0 0
vt 0.08 0
vt 0.08 0.04
vt 0 0.04
vt 0 0
vt 0.04 0
vt 0.04 2.28
vt 0 2.28
vt 0 0
vt 0.04 0
vt 0.04 2.28
vt 0 2.28
vt 0 0
vt 0.08 0
vt 0.08 1.2
vt 0 1.2
vt 0 0
vt 1.2 0
vt 1.2 0.04
vt 0 0.04
vt 0 0
vt 1.2 0
vt 1.2 0.04
vt 0 0.04
vt 0 0
vt 0.04 0
vt 0.04 0.08
vt 0 0.08
vt 0 0
vt 0.04 0
vt 0.04 0.08
vt 0 0.08
vt 0 0
vt 3 0
vt 3 6.4
vt 0 6.4
vt 0 0
vt 3 0
vt 3 0.4
vt 0 0.4
vt 0 0
vt 0.8 0
vt 0.8 1.2
vt 0 1.2
vt 0 0
vt 2.2 0
vt 2.2 1.2
vt 0 1.2
vt 0 0
vt 0.06 0
vt 0.06 2.2
vt 0 2.2
vt 0 0
vt 0.06 0
vt 0.06 2.2
vt 0 2.2
vt 0 0
vt 1.2 0
vt 1.2 0.06
vt 0 0.06
vt 0 0
vt 2.28 0
vt 2.28 0.08
vt 0 0.08
vt 0 0
vt 0.08 0
vt 0.08 0.04
vt 0 0.04
vt 0 0
vt 0.04 0
vt 0.04 2.28
vt 0 2.28
vt 0 0
vt 0.04 0
vt 0.04 2.28
vt 0 2.28
vt 0 0
vt 2.28 0
vt 2.28 0.08
vt 0 0.08
vt 0 0
vt 0.08 0
vt 0.08 0.04
vt 0 0.04
vt 0 0
vt 0.04 0
vt 0.04 2.28
vt 0 2.28
vt 0 0
vt 0.04 0
vt 0.04 2.28
vt 0 2.28
vt 0 0
vt 0.08 0
vt 0.08 1.2
vt 0 1.2
vt 0 0
vt 1.2 0
vt 1.2 0.04
vt 0 0.04
vt 0 0
vt 1.2 0
vt 1.2 0.04
vt 0 0.04
vt 0 0
vt 0.04 0
vt 0.04 0.08
vt 0 0.08
vt 0 0
vt 0.04 0
vt 0.04 0.08
vt 0 0.08
vn 0 1 0
vn 0 -1 0
vn 1 0 0
vn 0 0 1
vn 0 0 -1
vn -1 0 0
g floor
usemtl floor
f 1/1/1 2/2/1 3/3/1 4/4/1
g ceiling
usemtl ceiling
f 5/5/2 6/6/2 7/7/2 8/8/2
g wall_left
usemtl wall
f 9/9/3 10/10/3 11/11/3 12/12/3
f 13/13/3 14/14/3 15/15/3 16/16/3
f 17/17/3 18/18/3 19/19/3 20/20/3
g door_left
usemtl door
f 21/21/3 22/22/3 23/23/3 24/24/3
g door_reveal_left
usemtl wall
f 25/25/4 26/26/4 27/27/4 28/28/4
f 29/29/5 30/30/5 31/31/5 32/32/5
f 33/33/2 34/34/2 35/35/2 36/36/2
g door_frame_left
usemtl door_frame
f 37/37/3 38/38/3 39/39/3 40/40/3
f 41/41/1 42/42/1 43/43/1 44/44/1
f 45/45/5 46/46/5 47/47/5 48/48/5
f 49/49/4 50/50/4 51/51/4 52/52/4
f 53/53/3 54/54/3 55/55/3 56/56/3
f 57/57/1 58/58/1 59/59/1 60/60/1
f 61/61/5 62/62/5 63/63/5 64/64/5
f 65/65/4 66/66/4 67/67/4 68/68/4
f 69/69/3 70/70/3 71/71/3 72/72/3
f 73/73/2 74/74/2 75/75/2 76/76/2
f 77/77/1 78/78/1 79/79/1 80/80/1
f 81/81/5 82/82/5 83/83/5 84/84/5
f 85/85/4 86/86/4 87/87/4 88/88/4
g wall_right
usemtl wall
f 89/89/6 90/90/6 91/91/6 92/92/6
f 93/93/6 94/94/6 95/95/6 96/96/6
f 97/97/6 98/98/6 99/99/6 100/100/6
g door_right
usemtl door
f 101/101/6 102/102/6 103/103/6 104/104/6
g door_reveal_right
usemtl wall
f 105/105/4 106/106/4 107/107/4 108/108/4
f 109/109/5 110/110/5 111/111/5 112/112/5
f 113/113/2 114/114/2 115/115/2 116/116/2
g door_frame_right
usemtl door_frame
f 117/117/6 118/118/6 119/119/6 120/120/6
f 121/121/1 122/122/1 123/123/1 124/124/1
f 125/125/5 126/126/5 127/127/5 128/128/5
f 129/129/4 130/130/4 131/131/4 132/132/4
f 133/133/6 134/134/6 135/135/6 136/136/6
f 137/137/1 138/138/1 139/139/1 140/140/1
f 141/141/5 142/142/5 143/143/5 144/144/5
f 145/145/4 146/146/4 147/147/4 148/148/4
f 149/149/6 150/150/6 151/151/6 152/152/6
f 153/153/2 154/154/2 155/155/2 156/156/2
f 157/157/1 158/158/1 159/159/1 160/160/1
f 161/161/5 162/162/5 163/163/5 164/164/5
f 165/165/4 166/166/4 167/167/4 168/168/4
