# Sieve Real Graphics template: the start/finish marker. Built by tools/build_mesh_templates.py.
# Units metres, Y up. A checkered strip on the floor across the corridor, two rows of 16
# squares of 0.25 m, from z = -0.25 to 0.25 about the line where a loop of the line starts
# (z = 0 of a tile). Where every line starts together, the engine draws it twice, 1 m apart.
# It sits 1 mm above the floor so it never flickers against it.
mtllib marker.mtl
v -2 0.001 -0.25
v -2 0.001 0
v -1.75 0.001 0
v -1.75 0.001 -0.25
v -1.75 0.001 -0.25
v -1.75 0.001 0
v -1.5 0.001 0
v -1.5 0.001 -0.25
v -1.5 0.001 -0.25
v -1.5 0.001 0
v -1.25 0.001 0
v -1.25 0.001 -0.25
v -1.25 0.001 -0.25
v -1.25 0.001 0
v -1 0.001 0
v -1 0.001 -0.25
v -1 0.001 -0.25
v -1 0.001 0
v -0.75 0.001 0
v -0.75 0.001 -0.25
v -0.75 0.001 -0.25
v -0.75 0.001 0
v -0.5 0.001 0
v -0.5 0.001 -0.25
v -0.5 0.001 -0.25
v -0.5 0.001 0
v -0.25 0.001 0
v -0.25 0.001 -0.25
v -0.25 0.001 -0.25
v -0.25 0.001 0
v 0 0.001 0
v 0 0.001 -0.25
v 0 0.001 -0.25
v 0 0.001 0
v 0.25 0.001 0
v 0.25 0.001 -0.25
v 0.25 0.001 -0.25
v 0.25 0.001 0
v 0.5 0.001 0
v 0.5 0.001 -0.25
v 0.5 0.001 -0.25
v 0.5 0.001 0
v 0.75 0.001 0
v 0.75 0.001 -0.25
v 0.75 0.001 -0.25
v 0.75 0.001 0
v 1 0.001 0
v 1 0.001 -0.25
v 1 0.001 -0.25
v 1 0.001 0
v 1.25 0.001 0
v 1.25 0.001 -0.25
v 1.25 0.001 -0.25
v 1.25 0.001 0
v 1.5 0.001 0
v 1.5 0.001 -0.25
v 1.5 0.001 -0.25
v 1.5 0.001 0
v 1.75 0.001 0
v 1.75 0.001 -0.25
v 1.75 0.001 -0.25
v 1.75 0.001 0
v 2 0.001 0
v 2 0.001 -0.25
v -2 0.001 0
v -2 0.001 0.25
v -1.75 0.001 0.25
v -1.75 0.001 0
v -1.75 0.001 0
v -1.75 0.001 0.25
v -1.5 0.001 0.25
v -1.5 0.001 0
v -1.5 0.001 0
v -1.5 0.001 0.25
v -1.25 0.001 0.25
v -1.25 0.001 0
v -1.25 0.001 0
v -1.25 0.001 0.25
v -1 0.001 0.25
v -1 0.001 0
v -1 0.001 0
v -1 0.001 0.25
v -0.75 0.001 0.25
v -0.75 0.001 0
v -0.75 0.001 0
v -0.75 0.001 0.25
v -0.5 0.001 0.25
v -0.5 0.001 0
v -0.5 0.001 0
v -0.5 0.001 0.25
v -0.25 0.001 0.25
v -0.25 0.001 0
v -0.25 0.001 0
v -0.25 0.001 0.25
v 0 0.001 0.25
v 0 0.001 0
v 0 0.001 0
v 0 0.001 0.25
v 0.25 0.001 0.25
v 0.25 0.001 0
v 0.25 0.001 0
v 0.25 0.001 0.25
v 0.5 0.001 0.25
v 0.5 0.001 0
v 0.5 0.001 0
v 0.5 0.001 0.25
v 0.75 0.001 0.25
v 0.75 0.001 0
v 0.75 0.001 0
v 0.75 0.001 0.25
v 1 0.001 0.25
v 1 0.001 0
v 1 0.001 0
v 1 0.001 0.25
v 1.25 0.001 0.25
v 1.25 0.001 0
v 1.25 0.001 0
v 1.25 0.001 0.25
v 1.5 0.001 0.25
v 1.5 0.001 0
v 1.5 0.001 0
v 1.5 0.001 0.25
v 1.75 0.001 0.25
v 1.75 0.001 0
v 1.75 0.001 0
v 1.75 0.001 0.25
v 2 0.001 0.25
v 2 0.001 0
vt 0 0
vt 0.25 0
vt 0.25 0.25
vt 0 0.25
vt 0 0
vt 0.25 0
vt 0.25 0.25
vt 0 0.25
vt 0 0
vt 0.25 0
vt 0.25 0.25
vt 0 0.25
vt 0 0
vt 0.25 0
vt 0.25 0.25
vt 0 0.25
vt 0 0
vt 0.25 0
vt 0.25 0.25
vt 0 0.25
vt 0 0
vt 0.25 0
vt 0.25 0.25
vt 0 0.25
vt 0 0
vt 0.25 0
vt 0.25 0.25
vt 0 0.25
vt 0 0
vt 0.25 0
vt 0.25 0.25
vt 0 0.25
vt 0 0
vt 0.25 0
vt 0.25 0.25
vt 0 0.25
vt 0 0
vt 0.25 0
vt 0.25 0.25
vt 0 0.25
vt 0 0
vt 0.25 0
vt 0.25 0.25
vt 0 0.25
vt 0 0
vt 0.25 0
vt 0.25 0.25
vt 0 0.25
vt 0 0
vt 0.25 0
vt 0.25 0.25
vt 0 0.25
vt 0 0
vt 0.25 0
vt 0.25 0.25
vt 0 0.25
vt 0 0
vt 0.25 0
vt 0.25 0.25
vt 0 0.25
vt 0 0
vt 0.25 0
vt 0.25 0.25
vt 0 0.25
vt 0 0
vt 0.25 0
vt 0.25 0.25
vt 0 0.25
vt 0 0
vt 0.25 0
vt 0.25 0.25
vt 0 0.25
vt 0 0
vt 0.25 0
vt 0.25 0.25
vt 0 0.25
vt 0 0
vt 0.25 0
vt 0.25 0.25
vt 0 0.25
vt 0 0
vt 0.25 0
vt 0.25 0.25
vt 0 0.25
vt 0 0
vt 0.25 0
vt 0.25 0.25
vt 0 0.25
vt 0 0
vt 0.25 0
vt 0.25 0.25
vt 0 0.25
vt 0 0
vt 0.25 0
vt 0.25 0.25
vt 0 0.25
vt 0 0
vt 0.25 0
vt 0.25 0.25
vt 0 0.25
vt 0 0
vt 0.25 0
vt 0.25 0.25
vt 0 0.25
vt 0 0
vt 0.25 0
vt 0.25 0.25
vt 0 0.25
vt 0 0
vt 0.25 0
vt 0.25 0.25
vt 0 0.25
vt 0 0
vt 0.25 0
vt 0.25 0.25
vt 0 0.25
vt 0 0
vt 0.25 0
vt 0.25 0.25
vt 0 0.25
vt 0 0
vt 0.25 0
vt 0.25 0.25
vt 0 0.25
vt 0 0
vt 0.25 0
vt 0.25 0.25
vt 0 0.25
vn 0 1 0
g square_0_0
usemtl marker_light
f 1/1/1 2/2/1 3/3/1 4/4/1
g square_0_1
usemtl marker_dark
f 5/5/1 6/6/1 7/7/1 8/8/1
g square_0_2
usemtl marker_light
f 9/9/1 10/10/1 11/11/1 12/12/1
g square_0_3
usemtl marker_dark
f 13/13/1 14/14/1 15/15/1 16/16/1
g square_0_4
usemtl marker_light
f 17/17/1 18/18/1 19/19/1 20/20/1
g square_0_5
usemtl marker_dark
f 21/21/1 22/22/1 23/23/1 24/24/1
g square_0_6
usemtl marker_light
f 25/25/1 26/26/1 27/27/1 28/28/1
g square_0_7
usemtl marker_dark
f 29/29/1 30/30/1 31/31/1 32/32/1
g square_0_8
usemtl marker_light
f 33/33/1 34/34/1 35/35/1 36/36/1
g square_0_9
usemtl marker_dark
f 37/37/1 38/38/1 39/39/1 40/40/1
g square_0_10
usemtl marker_light
f 41/41/1 42/42/1 43/43/1 44/44/1
g square_0_11
usemtl marker_dark
f 45/45/1 46/46/1 47/47/1 48/48/1
g square_0_12
usemtl marker_light
f 49/49/1 50/50/1 51/51/1 52/52/1
g square_0_13
usemtl marker_dark
f 53/53/1 54/54/1 55/55/1 56/56/1
g square_0_14
usemtl marker_light
f 57/57/1 58/58/1 59/59/1 60/60/1
g square_0_15
usemtl marker_dark
f 61/61/1 62/62/1 63/63/1 64/64/1
g square_1_0
usemtl marker_dark
f 65/65/1 66/66/1 67/67/1 68/68/1
g square_1_1
usemtl marker_light
f 69/69/1 70/70/1 71/71/1 72/72/1
g square_1_2
usemtl marker_dark
f 73/73/1 74/74/1 75/75/1 76/76/1
g square_1_3
usemtl marker_light
f 77/77/1 78/78/1 79/79/1 80/80/1
g square_1_4
usemtl marker_dark
f 81/81/1 82/82/1 83/83/1 84/84/1
g square_1_5
usemtl marker_light
f 85/85/1 86/86/1 87/87/1 88/88/1
g square_1_6
usemtl marker_dark
f 89/89/1 90/90/1 91/91/1 92/92/1
g square_1_7
usemtl marker_light
f 93/93/1 94/94/1 95/95/1 96/96/1
g square_1_8
usemtl marker_dark
f 97/97/1 98/98/1 99/99/1 100/100/1
g square_1_9
usemtl marker_light
f 101/101/1 102/102/1 103/103/1 104/104/1
g square_1_10
usemtl marker_dark
f 105/105/1 106/106/1 107/107/1 108/108/1
g square_1_11
usemtl marker_light
f 109/109/1 110/110/1 111/111/1 112/112/1
g square_1_12
usemtl marker_dark
f 113/113/1 114/114/1 115/115/1 116/116/1
g square_1_13
usemtl marker_light
f 117/117/1 118/118/1 119/119/1 120/120/1
g square_1_14
usemtl marker_dark
f 121/121/1 122/122/1 123/123/1 124/124/1
g square_1_15
usemtl marker_light
f 125/125/1 126/126/1 127/127/1 128/128/1
